HIERARCHY
ROOT Hips
{
	OFFSET 0.000000 0.000000 0.000000 
	CHANNELS 6 Xposition Yposition Zposition Zrotation Yrotation Xrotation
	JOINT LeftUpLeg
	{
		OFFSET 1.363060 -1.794630 0.839290 
		CHANNELS 3 Zrotation Yrotation Xrotation
		JOINT LeftLeg
		{
			OFFSET 2.448110 -6.726130 0.000000 
			CHANNELS 3 Zrotation Yrotation Xrotation
			JOINT LeftFoot
			{
				OFFSET 2.562200 -7.039590 0.000000 
				CHANNELS 3 Zrotation Yrotation Xrotation
				JOINT LeftToeBase
				{
					OFFSET 0.157640 -0.433110 2.322550 
					CHANNELS 3 Zrotation Yrotation Xrotation
					End Site
					{
						OFFSET 0.000000 0.000000 0.000000 
					}
				}
			}
		}
	}
	JOINT RightUpLeg
	{
		OFFSET -1.305520 -1.794630 0.839290 
		CHANNELS 3 Zrotation Yrotation Xrotation
		JOINT RightLeg
		{
			OFFSET -2.542530 -6.985550 0.000000 
			CHANNELS 3 Zrotation Yrotation Xrotation
			JOINT RightFoot
			{
				OFFSET -2.568260 -7.056230 0.000000 
				CHANNELS 3 Zrotation Yrotation Xrotation
				JOINT RightToeBase
				{
					OFFSET -0.164730 -0.452590 2.363150 
					CHANNELS 3 Zrotation Yrotation Xrotation
					End Site
					{
						OFFSET 0.000000 0.000000 0.000000 
					}
				}
			}
		}
	}
	JOINT Spine
	{
		OFFSET 0.028270 2.035590 -0.193380 
		CHANNELS 3 Zrotation Yrotation Xrotation
		JOINT Spine1
		{
			OFFSET 0.056720 2.048850 -0.042750 
			CHANNELS 3 Zrotation Yrotation Xrotation
			JOINT Neck1
			{
				OFFSET -0.054170 1.746240 0.172020 
				CHANNELS 3 Zrotation Yrotation Xrotation
				JOINT Head
				{
					OFFSET 0.104070 1.761360 -0.123970 
					CHANNELS 3 Zrotation Yrotation Xrotation
					End Site
					{
						OFFSET 0.000000 0.000000 0.000000 
					}
				}
			}
			JOINT LeftArm
			{
				OFFSET 3.362410 1.200890 -0.311210 
				CHANNELS 3 Zrotation Yrotation Xrotation
				JOINT LeftForeArm
				{
					OFFSET 4.983000 -0.000000 -0.000000 
					CHANNELS 3 Zrotation Yrotation Xrotation
					JOINT LeftHand
					{
						OFFSET 3.483560 -0.000000 -0.000000 
						CHANNELS 3 Zrotation Yrotation Xrotation
						JOINT LeftHandIndex1
						{
							OFFSET 0.715260 -0.000000 -0.000000 
							CHANNELS 3 Zrotation Yrotation Xrotation
							End Site
							{
								OFFSET 0.000000 0.000000 0.000000 
							}
						}
					}
				}
			}
			JOINT RightArm
			{
				OFFSET -3.136600 1.374050 -0.404650 
				CHANNELS 3 Zrotation Yrotation Xrotation
				JOINT RightForeArm
				{
					OFFSET -5.241900 -0.000000 -0.000000 
					CHANNELS 3 Zrotation Yrotation Xrotation
					JOINT RightHand
					{
						OFFSET -3.444170 -0.000000 -0.000000 
						CHANNELS 3 Zrotation Yrotation Xrotation
						JOINT RightHandIndex1
						{
							OFFSET -0.622530 -0.000000 -0.000000 
							CHANNELS 3 Zrotation Yrotation Xrotation
							End Site
							{
								OFFSET 0.000000 0.000000 0.000000 
							}
						}
					}
				}
			}
		}
	}
}
MOTION
Frames: 6
Frame Time: 0.041667
-17.389142 17.750767 3.574641 -57.637683 -88.562856 65.018406 -16.234738 -4.783578 1.193866 1.936984 10.406086 28.825985 0.437160 -0.416226 4.331110 1.271500 -7.146800 -20.151000 14.143665 8.760507 -26.724915 -0.454564 -6.707476 16.690020 2.840881 -18.009898 1.311346 -0.414800 -4.134200 11.454500 1.458725 -2.840369 -4.691460 6.240111 -1.722770 0.186189 0.030962 5.729273 21.030358 0.649700 2.025100 12.595700 -98.008640 1.043224 -7.537861 7.159515 -24.466385 -2.358918 1.843643 4.679676 16.651885 -7.125000 0.000000 0.000000 85.942538 -13.463688 -6.224740 -9.712285 21.605201 -1.823498 -0.736709 0.390579 10.400433 7.125000 0.000000 0.000000 
-17.550396 17.758351 3.546601 -75.268193 -88.362171 82.634899 -15.837215 -4.700912 0.632583 2.178084 10.835226 30.144305 0.418081 -0.188243 5.205032 1.266800 -7.134000 -20.113100 14.718241 8.832369 -26.284894 -0.469337 -6.722945 16.794281 2.765530 -17.691607 1.534357 -0.447100 -4.290100 11.894300 1.465466 -2.669605 -4.674780 6.207365 -1.628815 0.214393 0.057114 5.611522 21.035188 0.671600 1.967100 12.601500 -98.381762 2.159752 -10.676172 6.296536 -23.132367 -2.152831 2.089204 4.691615 18.590131 -7.125000 0.000000 0.000000 85.909504 -13.307646 -5.214323 -10.073902 22.219050 -1.977653 -0.734431 0.378907 9.658969 7.125000 0.000000 0.000000 
-17.711451 17.766933 3.518461 -87.130670 -88.100870 94.481458 -15.422648 -4.617050 0.026055 2.438106 11.268076 31.501061 0.403219 0.048695 6.102050 1.251700 -7.092900 -19.991000 15.311350 8.897651 -25.825454 -0.484031 -6.742169 16.903876 2.689039 -17.365230 1.744659 -0.481400 -4.449500 12.344900 1.472820 -2.502126 -4.658701 6.167703 -1.542161 0.238659 0.089205 5.486022 21.038376 0.695500 1.906100 12.605200 -98.727335 3.244456 -14.045640 5.510904 -21.808534 -1.966557 2.341922 4.682519 20.637556 -7.125000 0.000000 0.000000 85.868684 -13.151646 -4.200537 -10.450869 22.847738 -2.141078 -0.731541 0.367761 8.948235 7.125000 0.000000 0.000000 
-17.871908 17.776612 3.490222 -94.792065 -87.797400 102.126285 -14.991006 -4.538799 -0.623043 2.718515 11.699786 32.894193 0.392582 0.288622 7.012142 1.227000 -7.025300 -19.790300 15.915864 8.955588 -25.355971 -0.497199 -6.765788 17.011367 2.612850 -17.039664 1.937256 -0.518000 -4.613000 12.808100 1.481298 -2.341870 -4.643885 6.122205 -1.464626 0.258286 0.126268 5.351136 21.041110 0.720600 1.841500 12.608600 -99.040501 4.300123 -17.620985 4.814402 -20.510763 -1.799936 2.599608 4.648729 22.793550 -7.125000 0.000000 0.000000 85.820017 -12.998904 -3.179331 -10.846221 23.494781 -2.315313 -0.728080 0.357150 8.262694 7.125000 0.000000 0.000000 
-18.031865 17.787189 3.461982 -99.919237 -87.465809 107.234209 -14.542574 -4.463865 -1.312347 3.017915 12.128643 34.315926 0.386385 0.529293 7.923666 1.193600 -6.932400 -19.515200 16.533478 9.009204 -24.868724 -0.508329 -6.790012 17.110267 2.537268 -16.715023 2.113193 -0.556800 -4.779600 13.281000 1.490611 -2.183501 -4.629498 6.069085 -1.391667 0.274806 0.169327 5.207387 21.042575 0.747400 1.773500 12.611100 -99.317570 5.329870 -21.362514 4.218750 -19.259167 -1.652939 2.858236 4.589790 25.039368 -7.125000 0.000000 0.000000 85.763406 -12.845652 -2.164054 -11.257105 24.154423 -2.499367 -0.724125 0.347183 7.610234 7.125000 0.000000 0.000000 
-18.191024 17.798665 3.433743 -103.453272 -87.118333 110.746134 -14.082039 -4.394278 -2.042692 3.334890 12.553256 35.759808 0.384442 0.767806 8.824187 1.154600 -6.822200 -19.189600 17.158592 9.060352 -24.361168 -0.517457 -6.811604 17.195509 2.462916 -16.392739 2.274117 -0.596100 -4.942700 13.745200 1.500465 -2.025527 -4.615652 6.008472 -1.320986 0.288717 0.218303 5.054955 21.042709 0.775900 1.702300 12.612400 -99.556479 6.341473 -25.213741 3.733083 -18.076776 -1.525384 3.112185 4.506428 27.340412 -7.125000 0.000000 0.000000 85.698521 -12.693812 -1.155833 -11.684081 24.826406 -2.693717 -0.719770 0.337921 6.990079 7.125000 0.000000 0.000000 
